# xmcd CD database file
#
# Track frame offsets:
#	150
#	13994
#	30088
#	46665
#	61224
#	80265
#	94234
#	108857
#	120020
#	137063
#	157470
#	176870
#	190135
#	206890
#	226647
#	245782
#
# Disc length: 3558 seconds
#
# Revision: 0
# Processed by: cddbd v1.5.2PL0 Copyright (c) Steve Scherf et al.
# Submitted via: CDex 1.51
#
DISCID=cd0de410
DTITLE=Various Artist - Countrys Got Heart_I Still Believe in You Disc 2
DYEAR=1900
DGENRE=Country
TTITLE0=01-A Better Man - Clint Black
TTITLE1=02-Forever and Ever, Amen - Randy Travis
TTITLE2=03-Any Day Now - Ronnie Milsap
TTITLE3=04-Mama He's Crazy - The Judds
TTITLE4=05-There's No Way - Alabama
TTITLE5=06-Baby Don't Get Hooked on Me - Mac Davis
TTITLE6=07-Could I Have This Dance - Anne Murray
TTITLE7=08-Easy Loving - Freddie Hart
TTITLE8=09-Lady - Kenny Rogers
TTITLE9=10-When I Said I Do - Clint Black with Lisa Hartman Black
TTITLE10=11-Lost in the Fifties Tonight (In the Still of the Night) - Ronnie Milsap
TTITLE11=12-I Will Always Love You - Dolly Parton
TTITLE12=13-When You Say Nothing At All - Keith Whitley
TTITLE13=14-Young Love (Strong Love) - The Judds
TTITLE14=15-She Believes in Me - Kenny Rogers
TTITLE15=16-The Wind Beneath My Wings - Gary Morris
EXTD=
EXTT0=
EXTT1=
EXTT2=
EXTT3=
EXTT4=
EXTT5=
EXTT6=
EXTT7=
EXTT8=
EXTT9=
EXTT10=
EXTT11=
EXTT12=
EXTT13=
EXTT14=
EXTT15=
PLAYORDER=
